<?xml version="1.0" encoding="iso-8859-1"?>
<!-- Generator: Adobe Illustrator 16.0.0, SVG Export Plug-In . SVG Version: 6.00 Build 0)  -->
<!DOCTYPE svg PUBLIC "-//W3C//DTD SVG 1.1//EN" "http://www.w3.org/Graphics/SVG/1.1/DTD/svg11.dtd">
<svg version="1.1" id="Capa_1" xmlns="http://www.w3.org/2000/svg" xmlns:xlink="http://www.w3.org/1999/xlink" x="0px" y="0px"
	 width="331.071px" height="331.071px" viewBox="0 0 331.071 331.071" style="enable-background:new 0 0 331.071 331.071;"
	 xml:space="preserve">
<g>
	<g>
		<polygon points="189.348,83.375 108.651,10.059 89.678,30.952 186.458,83.37 		"/>
		<polygon points="11.971,129.797 13.574,126.834 13.608,114.673 5.339,123.768 		"/>
		<polygon points="317.498,204.237 317.461,216.397 325.729,207.307 319.101,201.273 		"/>
		<polygon points="141.727,247.695 222.423,321.013 241.396,300.119 144.611,247.701 		"/>
		<polygon points="317.54,184.378 317.524,192.546 317.524,192.847 317.63,192.646 331.071,167.829 322.787,163.342 		"/>
		<polygon points="0,163.241 8.287,167.729 13.532,146.693 13.547,138.525 13.547,138.222 13.439,138.428 		"/>
		<polygon points="85.934,35.065 83.494,33.742 81.047,32.416 73.164,28.149 59.025,54.258 60.803,54.701 63.777,55.439 
			66.749,56.18 174.52,83.046 		"/>
		<polygon points="267.295,275.629 264.326,274.891 156.55,248.028 245.141,296.006 247.577,297.329 250.024,298.653 
			257.908,302.925 272.046,276.811 270.269,276.367 		"/>
		<polygon points="37.312,83.012 38.723,83.012 40.374,83.017 42.361,83.022 43.442,83.022 153.18,83.288 62.627,60.715 
			59.653,59.977 56.676,59.236 56.37,59.16 53.665,58.484 50.96,57.81 41.815,55.531 34.968,83.006 35.082,83.006 		"/>
		<polygon points="293.762,248.06 292.349,248.06 290.698,248.055 288.71,248.049 287.629,248.049 177.895,247.785 268.444,270.351 
			271.419,271.094 274.398,271.832 274.704,271.911 277.404,272.586 280.114,273.262 289.259,275.539 296.104,248.064 
			295.987,248.064 		"/>
		<polygon points="317.608,157.467 317.598,160.531 317.598,161.828 317.883,160.687 318.558,157.981 319.232,155.276 
			326.415,126.467 317.683,124.289 317.619,154.4 		"/>
		<polygon points="12.517,173.093 11.842,175.792 4.659,204.606 13.387,206.779 13.455,176.668 13.466,173.604 13.471,170.54 
			13.477,169.243 13.191,170.382 		"/>
		<path d="M199.325,88.796l-1.725-0.005l-1.123-0.005h-1.176l-4.52-0.011l-4.45-0.011l-1.245-0.005l-10.03-0.024l-134.53-0.325
			l-3.056-0.005h-0.019l-3.066-0.005h-0.562h-0.206l-2.779-0.005H30.18l-2.122-0.005l-8.991-0.021l-0.026,12.295l-0.011,4.029
			l-0.011,4.023l-0.023,8.105l-0.016,5.692v2.305l-0.005,3.391l-0.021,7.879v0.05l-0.01,3.639l-0.011,3.639l-0.011,3.942
			l-0.065,26.098l-0.006,3.064l-0.005,3.068l-0.071,28.529l-0.005,2.785l-0.005,2.778L18.7,242l109.02,0.259l4.024,0.011
			l1.727,0.005h1.123l1.176,0.006l4.522,0.01l4.448,0.011l1.242,0.005l10.033,0.027l134.53,0.321l3.059,0.005h0.011l3.069,0.006
			h0.559h0.206l2.779,0.005h0.659l2.125,0.005l8.986,0.021l0.031-12.292l0.011-4.029l0.011-4.028l0.021-8.101l0.016-5.695
			l0.006-2.305l0.005-3.391l0.021-7.878v-0.053l0.011-3.639l0.01-3.639l0.011-3.939l0.068-26.099v-3.063l0.011-3.066l0.068-28.535
			l0.006-2.779l0.005-2.782l0.068-28.313l-109.022-0.258L199.325,88.796z M60.874,104.996c12.898,0,23.358,10.46,23.358,23.361
			c0,12.899-10.46,23.359-23.358,23.359c-12.901,0-23.361-10.46-23.361-23.359C37.507,115.456,47.967,104.996,60.874,104.996z
			 M230.471,222.478H113.978h-4.019h-0.588h-3.431h-2.235H98.03H76.359H65.193H54.032H37.507v-4.118v-2.784v-2.779v-10.352h23.522
			h5.677h5.664h11.517H87.9h4.019h138.546v20.033H230.471z M230.471,187.62H75.616h-4.018h-4.013h-22.57h-5.661h-1.846v-0.996
			v-3.069v-15.968h8.023h4.013h4.019h176.908V187.62z"/>
	</g>
</g>
<g>
</g>
<g>
</g>
<g>
</g>
<g>
</g>
<g>
</g>
<g>
</g>
<g>
</g>
<g>
</g>
<g>
</g>
<g>
</g>
<g>
</g>
<g>
</g>
<g>
</g>
<g>
</g>
<g>
</g>
</svg>
